# xmcd CD database file
#
# Track frame offsets:
#	150
#	47977
#	75710
#	100412
#	140667
#
# Disc length: 2286 seconds
#
# Revision: 0
# Processed by: cddbd v1.5.1PL0 Copyright (c) Steve Scherf et al.
# Submitted via: CDex 1.51
#
DISCID=4208ec05
DTITLE=Hank Mobley - Roll Call
DYEAR=1960
DGENRE=Jazz
TTITLE0=Roll Call
TTITLE1=My Groove Your Move
TTITLE2=Take Your Pick
TTITLE3=A Baptist Beat
TTITLE4=The More I See You
EXTD=YEAR: 1960
EXTT0=
EXTT1=
EXTT2=
EXTT3=
EXTT4=
PLAYORDER=
